<svg width="22" height="23" viewBox="0 0 22 23" fill="none" xmlns="http://www.w3.org/2000/svg">
<path fill-rule="evenodd" clip-rule="evenodd" d="M12.6016 0.785407L13.9151 2.48198L15.9756 1.88148C16.597 1.69991 17.2091 1.80652 17.733 2.18714C18.2577 2.56777 18.5476 3.11664 18.5676 3.76462L18.6334 5.90929L20.6531 6.6339C21.2628 6.85294 21.695 7.29853 21.8949 7.91403C22.0956 8.53037 22.0074 9.14503 21.6426 9.68057L20.4349 11.4546L21.6426 13.2286C22.0074 13.7642 22.0948 14.3789 21.8949 14.9952C21.695 15.6115 21.2628 16.0571 20.6523 16.2753L18.6334 16.9999L18.5676 19.1446C18.5476 19.7926 18.2577 20.3414 17.733 20.7221C17.2091 21.1027 16.597 21.2093 15.9756 21.0277L13.9151 20.4272L12.6016 22.1238C12.2052 22.636 11.648 22.9092 11 22.9092C10.352 22.9092 9.79482 22.636 9.39837 22.1238L8.08492 20.4272L6.02437 21.0277C5.40304 21.2093 4.79087 21.1027 4.26699 20.7221C3.74228 20.3414 3.45243 19.7926 3.43244 19.1446L3.36665 16.9999L1.34691 16.2753C0.737242 16.0563 0.304977 15.6107 0.105085 14.9952C-0.0956392 14.3789 -0.00735388 13.7642 0.357448 13.2286L1.56513 11.4546L0.357448 9.68057C-0.00735388 9.14503 -0.0948063 8.53037 0.105085 7.91403C0.304977 7.2977 0.737242 6.85211 1.34774 6.6339L3.36665 5.90929L3.43244 3.76462C3.45243 3.11664 3.74228 2.56777 4.26699 2.18714C4.79087 1.80652 5.40304 1.69991 6.02437 1.88148L8.08492 2.48198L9.39837 0.785407C9.79482 0.273185 10.352 0 11 0C11.648 0 12.2052 0.273185 12.6016 0.785407ZM7.08463 11.6278C6.8331 11.3938 6.81894 11.0007 7.05298 10.7492C7.28702 10.4976 7.68097 10.4835 7.93167 10.7175L10.5611 13.1612L13.9909 8.45041C14.1924 8.17389 14.5806 8.11226 14.8579 8.31465C15.1344 8.51621 15.1961 8.90433 14.9937 9.18168L11.1774 14.423C11.1566 14.4555 11.1324 14.4871 11.1058 14.5163C10.8717 14.7678 10.4786 14.782 10.2271 14.5479L7.08546 11.6278H7.08463Z" fill="white"/>
</svg>
