<svg width="20" height="20" viewBox="0 0 20 20" fill="none" xmlns="http://www.w3.org/2000/svg">
<path d="M7.43077 -0.0098877C3.32755 -0.0098877 -0.00976562 3.32743 -0.00976562 7.43065C-0.00976562 11.5339 3.32755 14.8712 7.43077 14.8712C9.29907 14.8712 11.0061 14.1756 12.3136 13.0351L19.1288 19.8503C19.3184 20.0455 19.667 20.0517 19.8584 19.8583C20.0498 19.6648 20.0477 19.3081 19.8504 19.1206L13.0432 12.3135C14.1818 11.0065 14.8713 9.29708 14.8713 7.43065C14.8713 3.32743 11.534 -0.0098877 7.43077 -0.0098877ZM7.43077 1.01639C10.9793 1.01639 13.845 3.88208 13.845 7.43065C13.845 10.9792 10.9793 13.8449 7.43077 13.8449C3.8822 13.8449 1.01652 10.9792 1.01652 7.43065C1.01652 3.88208 3.8822 1.01639 7.43077 1.01639Z" fill="white"/>
</svg>
